<svg xmlns="http://www.w3.org/2000/svg" viewBox="0 0 96 96">
  <defs>
    <linearGradient id="bg" x1="0%" y1="0%" x2="100%" y2="100%">
      <stop offset="0%" stop-color="#1d4ed8"/>
      <stop offset="100%" stop-color="#0f766e"/>
    </linearGradient>
  </defs>
  <rect width="96" height="96" rx="24" fill="url(#bg)"/>
  <circle cx="48" cy="50" r="25" fill="#ffffff" opacity="0.18"/>
  <path d="M48 24a26 26 0 1 0 0 52 26 26 0 0 0 0-52zm0 8a18 18 0 1 1 0 36 18 18 0 0 1 0-36zm-3 7h6v13l9 5-3 5-12-7V39z" fill="#ffffff"/>
  <path d="M31 18l-8 8M65 18l8 8" stroke="#ffffff" stroke-width="6" stroke-linecap="round"/>
</svg>
